<?xml version="1.0" encoding="utf-8"?>
<!-- Generator: Adobe Illustrator 26.0.1, SVG Export Plug-In . SVG Version: 6.00 Build 0)  -->
<svg version="1.1" id="Layer_1" xmlns="http://www.w3.org/2000/svg" xmlns:xlink="http://www.w3.org/1999/xlink" x="0px" y="0px"
	 viewBox="0 0 1366 768" style="enable-background:new 0 0 1366 768;" xml:space="preserve">
<style type="text/css">
	.st0{fill:url(#SVGID_1_);}
	.st1{fill:url(#SVGID_00000090252683406016711190000015474427887952364186_);}
	.st2{fill:url(#SVGID_00000101818034713056805150000005547337250829293489_);}
	.st3{fill:url(#SVGID_00000000182291272194361670000007277516366121558696_);}
	.st4{fill:url(#SVGID_00000181786847863997524570000004432386651705823909_);}
	.st5{fill:url(#SVGID_00000083075630343239786420000006861405048359590057_);}
	.st6{fill:url(#SVGID_00000084506176201954520710000007047586869155731349_);}
	.st7{fill:url(#SVGID_00000025421405496214135680000001553862130732262558_);}
</style>
<g id="Layer_2_00000062913866112698179050000007455301128217149608_">
</g>
<linearGradient id="SVGID_1_" gradientUnits="userSpaceOnUse" x1="678.7065" y1="567.6395" x2="1200.85" y2="-208.3911">
	<stop  offset="0" style="stop-color:#3CC6F3"/>
	<stop  offset="0.2456" style="stop-color:#42C6E4"/>
	<stop  offset="0.5359" style="stop-color:#64C493"/>
	<stop  offset="0.6171" style="stop-color:#69C486"/>
	<stop  offset="0.7113" style="stop-color:#72C371"/>
	<stop  offset="0.9362" style="stop-color:#74C36E"/>
	<stop  offset="1" style="stop-color:#74C36D"/>
</linearGradient>
<path class="st0" d="M512,31.15c-9.22-12.53-17.48-30.06-14.33-29.98C544,2.24,1220-2.04,1367,1.17c2.89,0.06-0.05,58.95,0,134.92
	c0,0,0,182.39,0,547.18c0,5.71,0,11.42,0,17.13c0,12.7,0,12.67,0,12.85c-0.23,12.78-9.59,30.28-24,40.69
	c-16.35,11.81-33.35,10.25-40,9.64c-5.27-0.48-20.17-2.53-34-13.92c-6.19-5.1-12.35-10.18-14-19.27c-1.62-8.97,1.71-18.78,8-24.63
	c10.14-9.44,24.63-5.48,29-4.28c13.21,3.61,13.42,11.02,27,14.99c3.71,1.09,18.29,5.35,29-3.21c6.24-4.99,12.95-15.76,9-22.49
	c-2.76-4.69-10.13-6.44-18-4.28l0,0c-5.24-0.13-49.48-1.96-78-36.41c-2.74-3.31-9.16-15.06-22-38.55
	c-20.05-36.69-18.78-37.79-24-42.83c-20.48-19.79-59.8-21.92-84-4.28c-14.7,10.71-11.98,20.09-31,46.04
	c-9.58,13.07-27.22,37.14-54,50.33c-34.65,17.07-83.12,15.2-110-12.85c-8.22-8.57-21.01-26.48-16-38.55
	c6.48-15.6,35.77-4.72,53-21.42c19.4-18.81,15.64-64.99,2-95.3c-34.42-76.48-156.2-106.18-244-71.74
	c-22.4,8.79-18.51,13.06-45,24.63c-109.65,47.9-193,3.21-193,3.21c-15.36-8.25-57.18-30.72-78-80.31
	c-6.57-15.65-22.82-54.35-12-93.5c3.56-12.9,9.74-24.68,8-43.56c-0.45-4.84-2.39-24.77-16-38.55c-4.84-4.9-10.96-8.67-40-14.99
	c-40.45-8.81-42.45-4.43-58-11.78c-6.87-3.25-24.85-12.78-39-33.19c-1.54-2.22-7.93-11.64-13-25.7c-2.45-6.81-7.02-19.85-7-37.48
	c0.01-7.03,0.12-18.05,5-31.05c4.95-13.19,12.1-21.25,17-26.77c5.56-6.27,8.66-9.67,14-11.78c6.95-2.74,12.01-1.03,22,0
	c8.96,0.93,18,0,27,0c28.33,0,56.71,1.68,85,0c15.64-0.93,31.43,1.85,47,0c5.15-0.61,10.97-1.53,16,2.14
	c7.09,5.17,3.72,14.5,13,25.7c5.46,6.58,10.5,10.85,13,12.85c10.42,8.34,19.61,11.71,23,12.85c4.31,1.44,12.89,4.32,14,2.14
	C535.41,53.01,522.8,45.82,512,31.15z"/>
<linearGradient id="SVGID_00000139974243454508594090000016726627921888506241_" gradientUnits="userSpaceOnUse" x1="665.3497" y1="638.1757" x2="922.7114" y2="246.0054">
	<stop  offset="0.1955" style="stop-color:#6DE3EE"/>
	<stop  offset="0.2687" style="stop-color:#6DE1E7"/>
	<stop  offset="0.3764" style="stop-color:#6EDCD3"/>
	<stop  offset="0.5054" style="stop-color:#70D4B3"/>
	<stop  offset="0.6498" style="stop-color:#73C986"/>
	<stop  offset="0.7211" style="stop-color:#74C36D"/>
</linearGradient>
<path style="fill:url(#SVGID_00000139974243454508594090000016726627921888506241_);" d="M714.56,638.6
	c18.42,2.28,31.68-6.73,35.04-9.2c18.55-13.66,18.45-36.88,18.4-49.51c-0.05-13.17-2.98-13.31-6.8-41.35
	c-2.58-18.97-3.87-28.46-2.91-36.68c2.41-20.59,15.84-43.14,36.44-50.82c9.06-3.39,14.27-5.32,22.02-5.12
	c7.62,0.21,13.72,2.38,19.37-0.91c0.86-0.5,4.5-2.62,4.63-6.11c0.15-3.9-4.17-7.19-5.97-8.56c-12.4-9.45-38.9-7.11-42.98-6.71
	c-18.46,1.79-37.85,3.66-59.59,15.06c-26.64,13.97-39.1,32.97-48.45,47.21c-8.42,12.83-27.26,47.21-22.09,87.07
	c3.22,24.81,7.87,33.14,9.98,36.18C675.78,615.05,690.12,635.57,714.56,638.6z"/>
<linearGradient id="SVGID_00000152230377669314634060000000989973700587616158_" gradientUnits="userSpaceOnUse" x1="851" y1="338.5" x2="870" y2="338.5" gradientTransform="matrix(1 0 0 -1 0 770)">
	<stop  offset="1.325964e-07" style="stop-color:#6DE3EE"/>
	<stop  offset="0.9631" style="stop-color:#74C36D"/>
</linearGradient>
<path style="fill:url(#SVGID_00000152230377669314634060000000989973700587616158_);" d="M851.69,432.57
	c-0.19-0.36-1.72-3.38,0.51-6.26c1.94-2.5,5.62-3.48,8.6-3.28c4.35,0.28,8.14,3.09,8.98,6.91c0.09,0.3,1.24,4.54-2.69,7.6
	c-0.33,0.26-4.77,3.6-9.87,2.07C853.73,438.56,851.45,435.71,851.69,432.57z"/>
<linearGradient id="SVGID_00000129166051878656218670000016354985465766636205_" gradientUnits="userSpaceOnUse" x1="1329" y1="655" x2="1329" y2="655">
	<stop  offset="0" style="stop-color:#3CC6F3"/>
	<stop  offset="0.1592" style="stop-color:#42C6E4"/>
	<stop  offset="0.4636" style="stop-color:#52C5BE"/>
	<stop  offset="0.8785" style="stop-color:#6CC380"/>
	<stop  offset="1" style="stop-color:#74C36D"/>
</linearGradient>
<path style="fill:url(#SVGID_00000129166051878656218670000016354985465766636205_);" d="M1329,655"/>
<linearGradient id="SVGID_00000183964218675612642430000007600732068486936236_" gradientUnits="userSpaceOnUse" x1="1359" y1="657" x2="1359" y2="657">
	<stop  offset="0" style="stop-color:#3CC6F3"/>
	<stop  offset="0.1592" style="stop-color:#42C6E4"/>
	<stop  offset="0.4636" style="stop-color:#52C5BE"/>
	<stop  offset="0.8785" style="stop-color:#6CC380"/>
	<stop  offset="1" style="stop-color:#74C36D"/>
</linearGradient>
<path style="fill:url(#SVGID_00000183964218675612642430000007600732068486936236_);" d="M1359,657"/>
<linearGradient id="SVGID_00000119085652124057595310000007892808716022878090_" gradientUnits="userSpaceOnUse" x1="812.776" y1="233.2094" x2="1347.9249" y2="-73.1736">
	<stop  offset="2.651929e-07" style="stop-color:#FFFFFF;stop-opacity:0"/>
	<stop  offset="1" style="stop-color:#FFFFFF;stop-opacity:0.2"/>
</linearGradient>
<path style="fill:url(#SVGID_00000119085652124057595310000007892808716022878090_);" d="M1356.97,162.24
	c-5.15,9.73-14.48,24.42-30.09,36.49c-41.43,32.04-91.76,18.35-102.32,15.48c-18.11-4.93-35.81-15.82-71.22-37.6
	c-22.29-13.71-20.36-14.28-39.12-25.43c-28.75-17.09-50.76-30.18-80.25-35.39c-21.28-3.76-37.53-1.84-53.16,0
	c-43.3,5.11-47.35,17.55-86.27,23.22c-23.54,3.43-55.75,8.13-87.27-11.06c-24.86-15.13-37.34-37.84-40.12-43.13
	c-4.11-7.81-12.04-23.3-13.04-45.34c-0.72-15.99,2.5-28.84,5.02-36.49L1368-1.42v148.18L1356.97,162.24z"/>
<linearGradient id="SVGID_00000173146598723942578850000018194908874634220696_" gradientUnits="userSpaceOnUse" x1="226.3486" y1="58.3753" x2="1463.1145" y2="521.0136">
	<stop  offset="0" style="stop-color:#FFFFFF;stop-opacity:0.2"/>
	<stop  offset="1" style="stop-color:#FFFFFF;stop-opacity:0"/>
</linearGradient>
<path style="fill:url(#SVGID_00000173146598723942578850000018194908874634220696_);" d="M290,90c18.4-7.39,46.58-18.71,85-15
	c7.82,0.76,39.19,4.37,72,25c31.74,19.96,51.7,47.59,65,66c13.68,18.94,19.93,32.08,39,49c2.81,2.49,14.66,12.84,33,23
	c12.38,6.86,55.66,30.06,113.34,24.7c12.5-1.16,21.72-3.3,27.66-4.7c37.39-8.81,51.17-22.21,83-37c9.88-4.59,45.32-20.38,92-26
	c7.45-0.9,34.53-3.86,70,0c52.62,5.73,90.68,22.88,117,35c29.44,13.56,55.63,30.37,108,64c17.27,11.09,31.4,20.51,41,27
	c21.3,14.46,39.27,24.96,52,32c9.24,5.11,22.63,12.21,40,24c22.83,15.5,26.56,21.45,28,24c6.73,11.9,4.14,21.34,2,48
	c-1.28,15.9-1.52,36.27-2,77c-0.53,44.52,1.92,49.36-3,53c-8.42,6.22-27.88,1.1-126-75c-38.24-29.66-56.21-45.11-102-82
	c-61.98-49.93-93.42-75.15-115-88c-39.69-23.63-85.17-50.7-144-56c-70.67-6.36-147.41,22.03-211,45c-19.64,7.1-52.02,19.69-91,12
	c-30.11-5.94-53.13-21.79-59-26c-25.97-18.61-48.25-46.95-53-53c-10.66-13.56-27.78-37.68-43-36c-2.11,0.23-8.03,1.39-12-2
	c-3.17-2.7-2.9-6.43-4-11c-3.41-14.24-16.61-22.5-19-24c-4.89-3.06-7.61-3.09-21-6c-4.94-1.07-20.68-4.49-32-8
	c-17.57-5.45-28.93-12.52-49-25c-4-2.49-9.4-6.03-15-12c-2.22-2.36-3.88-4.49-5-6c-2.11-1.27-4.56-3.23-5-6
	C245.09,108.04,282.34,93.08,290,90z"/>
<g id="Layer_2_00000139996661843214014000000008257446812326039201_">
</g>
<linearGradient id="SVGID_00000100371753892386349030000016224509630206620584_" gradientUnits="userSpaceOnUse" x1="179" y1="263" x2="179" y2="263">
	<stop  offset="0" style="stop-color:#FFFFFF;stop-opacity:0.2"/>
	<stop  offset="1" style="stop-color:#FFFFFF;stop-opacity:0"/>
</linearGradient>
<path style="fill:url(#SVGID_00000100371753892386349030000016224509630206620584_);" d="M179,263"/>
</svg>
