<?xml version="1.0" encoding="utf-8"?>
<!-- Generator: Adobe Illustrator 26.0.1, SVG Export Plug-In . SVG Version: 6.00 Build 0)  -->
<svg version="1.1" id="Layer_1" xmlns="http://www.w3.org/2000/svg" xmlns:xlink="http://www.w3.org/1999/xlink" x="0px" y="0px"
	 viewBox="0 0 1366 768" style="enable-background:new 0 0 1366 768;" xml:space="preserve">
<style type="text/css">
	.st0{fill:url(#SVGID_1_);}
	.st1{fill:url(#SVGID_00000037663403463874279460000005935537174778127518_);}
	.st2{fill:url(#SVGID_00000155122438123147434100000010992961406385282749_);}
	.st3{fill:url(#SVGID_00000161613419234881173510000013563368200771601042_);}
	.st4{fill:url(#SVGID_00000134209304575284742530000001040283962010013832_);}
	.st5{fill:url(#SVGID_00000032633416875073816990000015797284067148963511_);}
	.st6{fill:url(#SVGID_00000010296205098814176240000007279883702510385071_);}
</style>
<g id="Layer_2_00000062913866112698179050000007455301128217149608_">
</g>
<linearGradient id="SVGID_1_" gradientUnits="userSpaceOnUse" x1="664.4395" y1="645.4731" x2="1057.4396" y2="-182.5269">
	<stop  offset="0" style="stop-color:#3CC6F3"/>
	<stop  offset="0.1592" style="stop-color:#42C6E4"/>
	<stop  offset="0.8457" style="stop-color:#72C371"/>
	<stop  offset="1" style="stop-color:#74C36D"/>
</linearGradient>
<path class="st0" d="M512,29c-9.22-11.7-17.48-28.07-14.33-28C544,2,1220-2,1367,1c2.89,0.06-0.05,55.05,0,126c0,0,0,170.33,0,511
	c0,5.33,0,10.67,0,16c0,11.86,0,11.84,0,12c-0.23,11.93-9.59,28.28-24,38c-16.35,11.03-33.35,9.57-40,9c-5.27-0.45-20.17-2.36-34-13
	c-6.19-4.76-12.35-9.51-14-18c-1.62-8.38,1.71-17.54,8-23c10.14-8.81,24.63-5.12,29-4c13.21,3.37,13.42,10.29,27,14
	c3.71,1.02,18.29,5,29-3c6.24-4.66,12.95-14.72,9-21c-2.76-4.38-10.13-6.01-18-4l0,0c-5.24-0.13-49.48-1.83-78-34
	c-2.74-3.1-9.16-14.06-22-36c-20.05-34.26-18.78-35.29-24-40c-20.48-18.48-59.8-20.47-84-4c-14.7,10-11.98,18.76-31,43
	c-9.58,12.21-27.22,34.68-54,47c-34.65,15.94-83.12,14.2-110-12c-8.22-8.01-21.01-24.73-16-36c6.48-14.57,35.77-4.4,53-20
	c19.4-17.56,15.64-60.69,2-89c-34.42-71.42-156.2-99.16-244-67c-22.4,8.2-18.51,12.19-45,23c-109.65,44.73-193,3-193,3
	c-15.36-7.7-57.18-28.68-78-75c-6.57-14.62-22.82-50.75-12-87.32c3.56-12.05,9.74-23.05,8-40.68c-0.45-4.52-2.39-23.13-16-36
	c-9.63-9.11-18.17-8.51-40-14c-16.26-4.09-40.28-10.13-62-24c-17.93-11.45-28.26-25.13-31.63-29.59c-2.13-2.83-5.67-7.77-9.37-14.41
	c-6.29-11.28-13.35-23.74-14-41c-0.53-13.91,3.16-24.12,6-32c5.42-15.02,11.04-19.24,14-21c3.5-2.08,6.7-2.74,8-3
	c26.82-5.32,163.31,1,205,1c1.74,0,4.9,14.87,13,24c5.46,6.15,10.5,10.13,13,12c10.42,7.79,19.61,10.94,23,12
	c4.31,1.35,12.89,4.03,14,2C535.41,49.41,522.8,42.7,512,29z"/>
<linearGradient id="SVGID_00000128468645136819822520000008478212516945665164_" gradientUnits="userSpaceOnUse" x1="558.1682" y1="596.3124" x2="1041.3137" y2="-33.2868" gradientTransform="matrix(-0.8922 -1.1152 -0.9822 0.7858 1757.8278 1151.5698)">
	<stop  offset="0.2713" style="stop-color:#6DE3EE"/>
	<stop  offset="0.3537" style="stop-color:#6DE2EA"/>
	<stop  offset="0.4326" style="stop-color:#6EDFDF"/>
	<stop  offset="0.5101" style="stop-color:#6FDACB"/>
	<stop  offset="0.5867" style="stop-color:#70D4B0"/>
	<stop  offset="0.662" style="stop-color:#72CB8E"/>
	<stop  offset="0.7211" style="stop-color:#74C36D"/>
</linearGradient>
<path style="fill:url(#SVGID_00000128468645136819822520000008478212516945665164_);" d="M725.75,561.98
	c12.98,4.95,23.9-0.16,26.7-1.61c15.43-8,18.79-26.91,20.62-37.19c1.91-10.73-0.19-11.33,1.19-34.78c0.94-15.87,1.4-23.8,3.31-30.33
	c4.78-16.35,17.83-32.44,33.86-35.23c7.05-1.23,11.11-1.94,16.68-0.47c5.48,1.45,9.57,4.24,14.14,2.51c0.7-0.27,3.64-1.38,4.25-4.19
	c0.69-3.15-1.95-6.55-3.05-7.97c-7.57-9.77-27.08-12.31-30.09-12.68c-13.61-1.64-27.91-3.37-45.31,2.25
	c-21.33,6.9-33.14,20.26-42.01,30.28c-7.98,9.02-26.69,33.84-28.84,67.13c-1.34,20.73,0.79,28.28,1.87,31.11
	C701.19,536.31,708.53,555.42,725.75,561.98z"/>
<linearGradient id="SVGID_00000126323176943041114520000015668118617276775840_" gradientUnits="userSpaceOnUse" x1="862" y1="340.2117" x2="879" y2="340.2117" gradientTransform="matrix(1 0 0 -1 0 770)">
	<stop  offset="1.325964e-07" style="stop-color:#6DE3EE"/>
	<stop  offset="0.9631" style="stop-color:#74C36D"/>
</linearGradient>
<path style="fill:url(#SVGID_00000126323176943041114520000015668118617276775840_);" d="M862.61,431.14
	c-0.17-0.45-1.54-4.29,0.46-7.94c1.73-3.17,5.03-4.41,7.7-4.17c3.89,0.35,7.29,3.93,8.03,8.77c0.08,0.39,1.11,5.76-2.41,9.64
	c-0.3,0.33-4.26,4.57-8.83,2.63C864.44,438.75,862.4,435.13,862.61,431.14z"/>
<linearGradient id="SVGID_00000022548108517314659500000001350190946757312135_" gradientUnits="userSpaceOnUse" x1="1329" y1="655" x2="1329" y2="655">
	<stop  offset="0" style="stop-color:#3CC6F3"/>
	<stop  offset="0.1592" style="stop-color:#42C6E4"/>
	<stop  offset="0.4636" style="stop-color:#52C5BE"/>
	<stop  offset="0.8785" style="stop-color:#6CC380"/>
	<stop  offset="1" style="stop-color:#74C36D"/>
</linearGradient>
<path style="fill:url(#SVGID_00000022548108517314659500000001350190946757312135_);" d="M1329,655"/>
<linearGradient id="SVGID_00000021841831109265790530000015322531226915626390_" gradientUnits="userSpaceOnUse" x1="1359" y1="657" x2="1359" y2="657">
	<stop  offset="0" style="stop-color:#3CC6F3"/>
	<stop  offset="0.1592" style="stop-color:#42C6E4"/>
	<stop  offset="0.4636" style="stop-color:#52C5BE"/>
	<stop  offset="0.8785" style="stop-color:#6CC380"/>
	<stop  offset="1" style="stop-color:#74C36D"/>
</linearGradient>
<path style="fill:url(#SVGID_00000021841831109265790530000015322531226915626390_);" d="M1359,657"/>
<linearGradient id="SVGID_00000149382762030747744230000006960832558618092929_" gradientUnits="userSpaceOnUse" x1="812.776" y1="233.2094" x2="1347.9249" y2="-73.1736">
	<stop  offset="2.651929e-07" style="stop-color:#FFFFFF;stop-opacity:0"/>
	<stop  offset="1" style="stop-color:#FFFFFF;stop-opacity:0.2"/>
</linearGradient>
<path style="fill:url(#SVGID_00000149382762030747744230000006960832558618092929_);" d="M1356.97,162.24
	c-5.15,9.73-14.48,24.42-30.09,36.49c-41.43,32.04-91.76,18.35-102.32,15.48c-18.11-4.93-35.81-15.82-71.22-37.6
	c-22.29-13.71-20.36-14.28-39.12-25.43c-28.75-17.09-50.76-30.18-80.25-35.39c-21.28-3.76-37.53-1.84-53.16,0
	c-43.3,5.11-47.35,17.55-86.27,23.22c-23.54,3.43-55.75,8.13-87.27-11.06c-24.86-15.13-37.34-37.84-40.12-43.13
	c-4.11-7.81-12.04-23.3-13.04-45.34c-0.72-15.99,2.5-28.84,5.02-36.49L1368-1.42v148.18L1356.97,162.24z"/>
<linearGradient id="SVGID_00000134931329983855069040000008742048234131264932_" gradientUnits="userSpaceOnUse" x1="239.3486" y1="50.3753" x2="1476.1145" y2="513.0136">
	<stop  offset="0" style="stop-color:#FFFFFF;stop-opacity:0.2"/>
	<stop  offset="1" style="stop-color:#FFFFFF;stop-opacity:0"/>
</linearGradient>
<path style="fill:url(#SVGID_00000134931329983855069040000008742048234131264932_);" d="M303,82c22.73-9.13,49.91-20.2,85-15
	c27.87,4.13,46.18,15.93,68,30c14.72,9.49,43.67,27.73,69,61c14.28,18.76,19.15,31.38,39,49c2.81,2.49,14.66,12.84,33,23
	c12.38,6.86,55.66,30.06,113.34,24.7c12.5-1.16,21.72-3.3,27.66-4.7c37.39-8.81,51.17-22.21,83-37c9.88-4.59,45.32-20.38,92-26
	c7.45-0.9,34.53-3.86,70,0c52.62,5.73,90.68,22.88,117,35c29.44,13.56,55.63,30.37,108,64c17.27,11.09,31.4,20.51,41,27
	c21.3,14.46,39.27,24.96,52,32c9.24,5.11,22.63,12.21,40,24c22.83,15.5,26.56,21.45,28,24c6.73,11.9,4.14,21.34,2,48
	c-1.28,15.9-1.52,36.27-2,77c-0.53,44.52,1.92,49.36-3,53c-8.42,6.22-27.88,1.1-126-75c-38.24-29.66-56.21-45.11-102-82
	c-61.98-49.93-93.42-75.15-115-88c-39.69-23.63-85.17-50.7-144-56c-70.67-6.36-147.41,22.03-211,45c-19.64,7.1-52.02,19.69-91,12
	c-30.11-5.94-53.13-21.79-59-26c-25.97-18.61-48.25-46.95-53-53c-10.66-13.56-27.78-37.68-43-36c-2.11,0.23-8.03,1.39-12-2
	c-3.17-2.7-2.9-6.43-4-11c-3.41-14.24-16.61-22.5-19-24c-4.89-3.06-7.61-3.09-21-6c-4.94-1.07-20.68-4.49-32-8
	c-17.57-5.45-28.93-12.52-49-25c-4-2.49-9.4-6.03-15-12c-2.22-2.36-3.88-4.49-5-6c-2.11-1.27-4.56-3.23-5-6
	C258.09,100.04,295.34,85.08,303,82z"/>
</svg>
