<?xml version="1.0" encoding="utf-8"?>
<!-- Generator: Adobe Illustrator 26.0.1, SVG Export Plug-In . SVG Version: 6.00 Build 0)  -->
<svg version="1.1" id="Layer_1" xmlns="http://www.w3.org/2000/svg" xmlns:xlink="http://www.w3.org/1999/xlink" x="0px" y="0px"
	 viewBox="0 0 1366 768" style="enable-background:new 0 0 1366 768;" xml:space="preserve">
<style type="text/css">
	.st0{fill:url(#SVGID_1_);}
	.st1{fill:url(#SVGID_00000170278623253420306990000007389142898626461834_);}
	.st2{fill:url(#SVGID_00000016075381484999957740000007405082476119880320_);}
	.st3{fill:url(#SVGID_00000137850330301475829120000016216463734548350106_);}
	.st4{fill:url(#SVGID_00000130647728086861715750000016963184859196984248_);}
	.st5{fill:url(#SVGID_00000126290591694936748030000013771437306631063436_);}
	.st6{fill:url(#SVGID_00000049198493100508803820000005224050043578014361_);}
	.st7{fill:none;}
	.st8{fill:url(#SVGID_00000124125854420357565540000009818518544229153449_);}
	.st9{fill:url(#SVGID_00000071559835825201312600000012232110356190826929_);}
	.st10{fill:url(#SVGID_00000165938504726303710870000017956654385905968541_);}
	.st11{fill:url(#SVGID_00000094589220461887132370000003434791729909264566_);}
	.st12{fill:url(#SVGID_00000006679046281874418820000004091803927604176298_);}
	.st13{fill:url(#SVGID_00000147928562219188340350000014191012660887043235_);}
</style>
<g id="Layer_1_00000119087345277621490030000001882947248487602581_">
	
		<image style="display:none;overflow:visible;enable-background:new    ;" width="1280" height="720" xlink:href="E2F96D51.jpeg"  transform="matrix(1.2437 0 0 1.1917 -2.1064 -45)">
	</image>
	
		<linearGradient id="SVGID_1_" gradientUnits="userSpaceOnUse" x1="472.9549" y1="641.5084" x2="963.1676" y2="2.6998" gradientTransform="matrix(1.1728 -0.8151 -0.7179 -1.0329 62.1066 1377.038)">
		<stop  offset="0.2713" style="stop-color:#6DE3EE"/>
		<stop  offset="0.3537" style="stop-color:#6DE2EA"/>
		<stop  offset="0.4326" style="stop-color:#6EDFDF"/>
		<stop  offset="0.5101" style="stop-color:#6FDACB"/>
		<stop  offset="0.5867" style="stop-color:#70D4B0"/>
		<stop  offset="0.662" style="stop-color:#72CB8E"/>
		<stop  offset="0.7211" style="stop-color:#74C36D"/>
	</linearGradient>
	<path class="st0" d="M590.8,418.4c-5,12.9,0,23.9,1.4,26.7c7.9,15.5,26.8,19,37,20.9c10.7,2,11.3-0.1,34.8,1.5
		c15.9,1.1,23.8,1.6,30.3,3.5c16.3,4.9,32.3,18.1,35,34.1c1.2,7.1,1.8,11.1,0.3,16.7c-1.5,5.5-4.3,9.5-2.6,14.1
		c0.3,0.7,1.3,3.7,4.2,4.3c3.1,0.7,6.6-1.9,8-3c9.8-7.5,12.5-27,12.9-30c1.8-13.6,3.6-27.9-1.9-45.3c-6.7-21.4-20-33.3-30-42.2
		c-9-8-29.5-26-62.5-30.4c-20.6-2.7-32.7,1.6-35.5,2.6C616.7,394.1,597.5,401.2,590.8,418.4z"/>
	
		<linearGradient id="SVGID_00000045604082652537357950000003846774118949405845_" gradientUnits="userSpaceOnUse" x1="705.613" y1="212.074" x2="724.6863" y2="212.074" gradientTransform="matrix(1 0 0 -1 0 768)">
		<stop  offset="1.325964e-07" style="stop-color:#6DE3EE"/>
		<stop  offset="0.9631" style="stop-color:#74C36D"/>
	</linearGradient>
	<path style="fill:url(#SVGID_00000045604082652537357950000003846774118949405845_);" d="M706.7,558.7c-0.3-0.6-2.7-5.5,0.6-9.1
		c3-3.3,9.2-3.5,13.2-1c3.3,2,4.8,5.7,4,9.1c-0.7,3.1-3.3,6.5-7.5,7C712.1,565.5,708.2,561.7,706.7,558.7z"/>
	
		<linearGradient id="SVGID_00000132090515669998095040000008001065531597843376_" gradientUnits="userSpaceOnUse" x1="793.89" y1="70.05" x2="793.89" y2="70.05" gradientTransform="matrix(1 0 0 -1 0 768)">
		<stop  offset="1.325964e-07" style="stop-color:#6DE3EE"/>
		<stop  offset="1" style="stop-color:#6AEBF0"/>
	</linearGradient>
	<path style="fill:url(#SVGID_00000132090515669998095040000008001065531597843376_);" d="M793.9,698"/>
	
		<linearGradient id="SVGID_00000080904703879852339000000012902016718673415810_" gradientUnits="userSpaceOnUse" x1="409.9695" y1="94.6373" x2="540.9745" y2="-28.928" gradientTransform="matrix(1.4563 5.038904e-03 4.106502e-03 -1.1868 -238.1198 765.6007)">
		<stop  offset="0.2511" style="stop-color:#6DE3EE"/>
		<stop  offset="1" style="stop-color:#74C36D"/>
	</linearGradient>
	<path style="fill:url(#SVGID_00000080904703879852339000000012902016718673415810_);" d="M472,768.1c-2.3-9.2-4.5-23.5-1.4-40.4
		c1.1-5.9,5.2-24.3,21-44.8c28.9-37.6,67.5-43.5,64.1-56.8c-2.7-10.8-30.5-15.5-47.5-15.9c-38.7-0.9-67.8,19.6-80.4,28.8
		c-30.8,22.3-24.2,33.9-64.2,66.4c-14,11.4-27.3,20.2-38.8,27.7c-22.5,14.8-42.7,26.1-58.1,34.1L472,768.1z"/>
	
		<linearGradient id="SVGID_00000037675936533723570120000014778124144864497837_" gradientUnits="userSpaceOnUse" x1="420.19" y1="-43.57" x2="420.19" y2="-43.57" gradientTransform="matrix(1 0 0 -1 0 768)">
		<stop  offset="0.1435" style="stop-color:#6DE3EE"/>
		<stop  offset="0.2885" style="stop-color:#6EDFDE"/>
		<stop  offset="0.5697" style="stop-color:#70D5B6"/>
		<stop  offset="0.9561" style="stop-color:#74C575"/>
		<stop  offset="1" style="stop-color:#74C36D"/>
	</linearGradient>
	<path style="fill:url(#SVGID_00000037675936533723570120000014778124144864497837_);" d="M420.2,811.6"/>
	
		<linearGradient id="SVGID_00000055666194704806347340000007397195052914605463_" gradientUnits="userSpaceOnUse" x1="700.1466" y1="725.4094" x2="1167.1879" y2="37.5821" gradientTransform="matrix(1 0 0 -1 0 768)">
		<stop  offset="0" style="stop-color:#3CC6F3"/>
		<stop  offset="0.1592" style="stop-color:#42C6E4"/>
		<stop  offset="0.4636" style="stop-color:#52C5BE"/>
		<stop  offset="0.8785" style="stop-color:#6CC380"/>
		<stop  offset="1" style="stop-color:#74C36D"/>
	</linearGradient>
	<path style="fill:url(#SVGID_00000055666194704806347340000007397195052914605463_);" d="M453.9-0.6c22.3,12,39.6,33,42.8,57
		c1.1,15,3.2,33,21.5,37c7.5,1,14-2,19.4-6c4.3-4,4.3-10,4.3-15c0-16-8.6-30-20.4-42c-12.9-14-31.2-19-48.4-27c0-1,1.1-2,1.1-2
		c5.9-1,11.6-0.5,17,1c6.2,1.7,10.4,4,15.3,7c16.1,9.7,24.1,14.5,27.2,16.8c10.9,8.2,20.2,15.2,28.1,26.5c12,17.3,6.2,24,18.9,43.9
		c4.8,7.6,11.6,18,24.5,25.5c15.2,8.8,30.5,8.7,37.8,8.2c5.2-0.5,30.3-2.6,49.7,15c4.2,3.8,14.3,13.3,16.7,28.9
		c2.3,15.3-3.3,32.8-16.6,42.7c-10.8,8-22.9,8.2-26.6,8.3c-9.8,0.2-10.8-2.3-21.5-3.8c-2.5-0.4-25.3-3.5-40.6,10.7
		c-8.1,7.5-11.1,16.6-12.3,21.4c-0.7,5.2-1.5,17.8,5.4,30.6c0.8,1.5,5.1,9.2,13.8,16.1c7.6,6,14.8,8.3,19.9,10
		c10.4,3.3,18.8,3.7,21.5,3.8c24.7,1.4,50.7,14.5,55.2,16.9c29.8,15.4,46.6,39.2,53.6,49c7.4,10.5,12.8,21,13.8,23
		c2.9,5.7,7.4,14.6,10.7,26c5.2,17.9,4.8,32.5,4.6,40.6c-0.3,10.5-1,26.2-8.4,44.4c-3.2,7.7-8.9,22.2-22.2,36
		c-9,9.3-18.6,15.4-26.8,20.7c-6.8,4.3-13.6,8.1-19.9,11.5c-2.1,1.2-9.8,5.3-17.9,9.2c-11.5,5.6-19.3,8.4-35.7,14.6
		c-24.5,9.2-36.9,14-49,19.2c-11.2,4.8-18.6,7.9-28.3,13c-13.7,7.2-31.3,15.9-49.1,32.9c-8.8,8.4-20.5,21.2-31.2,39.2
		c-3.1,5.6-8.3,17-8.5,32.1c-0.2,11.2,2.5,20.1,4.6,25.6c56.7,0,113.4,0,170,0c81-0.1,162-0.2,243-0.5l393.7-0.1h61.7V237
		c0-73.4,0-146.7,0-220.1c0-5.8,0-11.7,0-17.5c-108.7,0-217.4,0-326.2,0c-99.7,0-199.3,0-299,0c-25.9,0-51.7,0-77.6,0
		C593.5-0.6,523.7-0.6,453.9-0.6z"/>
	
		<linearGradient id="SVGID_00000010289169904792973950000006143441166798663340_" gradientUnits="userSpaceOnUse" x1="1340.0295" y1="334.7144" x2="1001.5825" y2="827.301" gradientTransform="matrix(1 0 0 -1 0 768)">
		<stop  offset="0.1822" style="stop-color:#FFFFFF;stop-opacity:0.2"/>
		<stop  offset="0.9905" style="stop-color:#FFFFFF;stop-opacity:2.332509e-03"/>
		<stop  offset="1" style="stop-color:#FFFFFF;stop-opacity:0"/>
	</linearGradient>
	<path style="fill:url(#SVGID_00000010289169904792973950000006143441166798663340_);" d="M719.1,0.3c12.2-0.8,102.4-5.2,165.4,77
		c36.2,47.2,19.8,96.5,49.8,140.3c45.4,66,126.6,23.8,216.2,50.4c59.3,17.6,138.3,68.1,215.4,218.1V0.3H719.1z"/>
	<path class="st7" d="M1116.7,78.3"/>
	
		<linearGradient id="SVGID_00000127759940573721180710000000604676498139344523_" gradientUnits="userSpaceOnUse" x1="1592.62" y1="311.83" x2="1592.62" y2="311.83" gradientTransform="matrix(1 0 0 -1 0 768)">
		<stop  offset="1.325964e-07" style="stop-color:#3CC6F3"/>
		<stop  offset="0.1592" style="stop-color:#42C6E4"/>
		<stop  offset="0.4636" style="stop-color:#52C5BE"/>
		<stop  offset="0.8785" style="stop-color:#6CC380"/>
		<stop  offset="1" style="stop-color:#74C36D"/>
	</linearGradient>
	<path style="fill:url(#SVGID_00000127759940573721180710000000604676498139344523_);" d="M1592.6,456.2"/>
	
		<linearGradient id="SVGID_00000150078514270081771190000003849474165221792943_" gradientUnits="userSpaceOnUse" x1="698" y1="269.2734" x2="1366" y2="269.2734" gradientTransform="matrix(1 0 0 -1 0 768)">
		<stop  offset="6.680820e-07" style="stop-color:#FFFFFF;stop-opacity:0.2"/>
		<stop  offset="1" style="stop-color:#FFFFFF;stop-opacity:0"/>
	</linearGradient>
	<path style="fill:url(#SVGID_00000150078514270081771190000003849474165221792943_);" d="M698,331c40.5-20.5,115.4-50.5,210-44.2
		c32.2,2.1,183.1,17.6,267.9,126.8c41.2,53,42.2,99.3,107.6,150c30.7,23.8,61.2,37.5,82.5,45.4c0,34.2,0,68.3,0,102.5
		c-7.3-1.1-15-2.5-23-4.2c-14.9-3.3-28.3-7.4-40.1-11.6c-23-9.2-57.8-25.9-90.4-56c-63.2-58.2-50.2-103.3-99.6-168
		c-69.1-90.5-182.6-117.2-209.5-123.6c-79.4-18.7-147-9.8-183.8-2.3c-0.7-2.1-2.2-5.3-5.1-8.2C708.2,331.2,699.9,331,698,331z"/>
	
		<linearGradient id="SVGID_00000159461757017287786200000010677742934695220153_" gradientUnits="userSpaceOnUse" x1="1441.47" y1="213.79" x2="1441.47" y2="213.79" gradientTransform="matrix(1 0 0 -1 0 768)">
		<stop  offset="1.325964e-07" style="stop-color:#3CC6F3"/>
		<stop  offset="0.1592" style="stop-color:#42C6E4"/>
		<stop  offset="0.4636" style="stop-color:#52C5BE"/>
		<stop  offset="0.8785" style="stop-color:#6CC380"/>
		<stop  offset="1" style="stop-color:#74C36D"/>
	</linearGradient>
	<path style="fill:url(#SVGID_00000159461757017287786200000010677742934695220153_);" d="M1441.5,554.2"/>
	
		<linearGradient id="SVGID_00000131361100724178083790000001919132322258287506_" gradientUnits="userSpaceOnUse" x1="1261.2745" y1="366.9888" x2="891.782" y2="-28.0539" gradientTransform="matrix(1 0 0 -1 0 768)">
		<stop  offset="1.910000e-02" style="stop-color:#FFFFFF;stop-opacity:0.3"/>
		<stop  offset="1" style="stop-color:#FFFFFF;stop-opacity:0"/>
	</linearGradient>
	<path style="fill:url(#SVGID_00000131361100724178083790000001919132322258287506_);" d="M774.8,494.7c3.5,6,13.7,1.5,25.8,3.9
		c20.9,4.2,36.1,26.8,41.7,44.6c6.8,21.7,0.9,40.7-2.2,50.5c-8.2,25.4-19.5,26.2-46.2,68.2c-10.6,16.7-15.8,29.3-22.5,44.7
		c-12.8,29.2-22.5,52.1-14.6,60.5c2.5,2.6,8.5,5.9,25.9-0.2c194.4,0,388.8,0,583.2,0c-0.2-4.7-0.4-11.5-0.1-19.7
		c0.7-23.8,4.2-31.4,0.1-35.2c-4.9-4.6-15.5,0.8-35.1,9.5c0,0-24.2,10.8-48.4,20.5c-36.7,14.5-73,5.2-95.6-0.6
		c-9.9-2.5-41.5-11.4-74.3-36.4c-29.5-22.5-26.5-32.6-63-62.3c-23.4-19-46-32.2-57.4-38.8c-28.3-16.4-33.3-15.5-56.3-30.5
		c-26.2-17.1-39.3-25.6-49.6-41.8c-10.3-16.1-8.8-24.5-25.8-51.7c-7.7-12.4-13.2-18.9-20.3-24.7c-10.8-8.8-20.9-12.1-30.4-15.3
		c-11.8-3.9-24.4-8-29.3-2.4c-1,1.2-1.3,2.4-1.7,13c-0.6,16.1,0,17.2-0.6,23.3C776.5,487.8,772.5,490.7,774.8,494.7z"/>
	
		<linearGradient id="SVGID_00000156579042890150907460000005128703247344395669_" gradientUnits="userSpaceOnUse" x1="1505.8101" y1="139.23" x2="1505.8101" y2="139.23" gradientTransform="matrix(1 0 0 -1 0 768)">
		<stop  offset="1.325964e-07" style="stop-color:#3CC6F3"/>
		<stop  offset="0.1592" style="stop-color:#42C6E4"/>
		<stop  offset="0.4636" style="stop-color:#52C5BE"/>
		<stop  offset="0.8785" style="stop-color:#6CC380"/>
		<stop  offset="1" style="stop-color:#74C36D"/>
	</linearGradient>
	<path style="fill:url(#SVGID_00000156579042890150907460000005128703247344395669_);" d="M1505.8,628.8"/>
	<path class="st7" d="M1499.7,484.8"/>
	
		<linearGradient id="SVGID_00000026131658349099187930000013347203861020332707_" gradientUnits="userSpaceOnUse" x1="1452.7" y1="191.32" x2="1452.7" y2="191.32" gradientTransform="matrix(1 0 0 -1 0 768)">
		<stop  offset="6.629821e-07" style="stop-color:#FFFFFF;stop-opacity:0.2"/>
		<stop  offset="1" style="stop-color:#FFFFFF;stop-opacity:0.2"/>
	</linearGradient>
	<path style="fill:url(#SVGID_00000026131658349099187930000013347203861020332707_);" d="M1452.7,576.7"/>
</g>
<g id="Layer_2_00000062913866112698179050000007455301128217149608_">
</g>
</svg>
