<?xml version="1.0" encoding="utf-8"?>
<!-- Generator: Adobe Illustrator 26.0.1, SVG Export Plug-In . SVG Version: 6.00 Build 0)  -->
<svg version="1.1" id="Layer_1" xmlns="http://www.w3.org/2000/svg" xmlns:xlink="http://www.w3.org/1999/xlink" x="0px" y="0px"
	 viewBox="0 0 1125 2436" style="enable-background:new 0 0 1125 2436;" xml:space="preserve">
<style type="text/css">
	.st0{fill:url(#SVGID_1_);}
	.st1{fill:url(#SVGID_00000068672732348754367460000009039788622011451539_);}
	.st2{fill:url(#SVGID_00000086651829136817115610000010588805817177887669_);stroke:#000000;stroke-miterlimit:10;}
	.st3{fill:url(#SVGID_00000010309743049516605380000000408149667924928951_);}
	.st4{fill:url(#SVGID_00000096778175132182579170000000249888340387518607_);}
	.st5{fill:url(#SVGID_00000072262846892910771490000004934096743154088361_);}
	.st6{fill:url(#SVGID_00000093882038864403274260000007792306964838107555_);}
	.st7{fill:none;stroke:#000000;stroke-miterlimit:10;}
	.st8{fill:url(#SVGID_00000018205577693805187400000005438605920510055100_);}
	.st9{fill:url(#SVGID_00000063601173940277667660000017570397004828830343_);}
	.st10{fill:url(#SVGID_00000163773935781505547970000004529037195416076451_);}
	.st11{fill:url(#SVGID_00000056407645863863756300000016988702874453022604_);}
	.st12{fill:url(#SVGID_00000033344643175604675320000007451007898723856017_);}
	.st13{fill:url(#SVGID_00000081610334498374739160000004850775211557513358_);}
</style>
<g id="Layer_1_00000119087345277621490030000001882947248487602581_">
	
		<image style="display:none;overflow:visible;enable-background:new    ;" width="1280" height="720" xlink:href="13A1BB3D.jpg"  transform="matrix(-9.933701e-03 1.6692 -1.7463 -8.717716e-03 1193 604.2767)">
	</image>
	
		<linearGradient id="SVGID_1_" gradientUnits="userSpaceOnUse" x1="259.3983" y1="862.327" x2="930.2593" y2="1736.543" gradientTransform="matrix(0.8087 1.1772 -1.0368 0.7123 1314.2953 -118.9525)">
		<stop  offset="0.2713" style="stop-color:#6DE3EE"/>
		<stop  offset="0.3537" style="stop-color:#6DE2EA"/>
		<stop  offset="0.4326" style="stop-color:#6EDFDF"/>
		<stop  offset="0.5101" style="stop-color:#6FDACB"/>
		<stop  offset="0.5867" style="stop-color:#70D4B0"/>
		<stop  offset="0.662" style="stop-color:#72CB8E"/>
		<stop  offset="0.7211" style="stop-color:#74C36D"/>
	</linearGradient>
	<path class="st0" d="M509.2,1396.7c-18.9-6.9-35-0.2-39.2,1.7c-22.8,10.5-28.1,35.8-30.9,49.5c-3,14.4,0.1,15.2-2.4,46.7
		c-1.7,21.3-2.5,31.9-5.4,40.6c-7.3,21.9-26.8,43.2-50.3,46.7c-10.4,1.5-16.3,2.4-24.4,0.3c-8-2-13.9-5.9-20.7-3.6
		c-1,0.3-5.4,1.8-6.3,5.6c-1.1,4.2,2.7,8.8,4.3,10.7c10.9,13.2,39.4,17,43.8,17.6c19.9,2.5,40.8,5,66.4-2.2
		c31.4-8.9,49-26.6,62.1-39.9c11.9-12,38.3-39.4,45-83.7c4.2-27.6-2-43.8-3.6-47.6C544.6,1431.6,534.3,1405.8,509.2,1396.7z"/>
	
		<linearGradient id="SVGID_00000080204556066396512720000017215279155068727711_" gradientUnits="userSpaceOnUse" x1="607.5568" y1="1457.0333" x2="633.1591" y2="1457.0333" gradientTransform="matrix(-5.450334e-03 1 -1 -5.450334e-03 1767.0593 950.1436)">
		<stop  offset="1.325964e-07" style="stop-color:#6DE3EE"/>
		<stop  offset="0.9631" style="stop-color:#74C36D"/>
	</linearGradient>
	<path style="fill:url(#SVGID_00000080204556066396512720000017215279155068727711_);" d="M302.6,1551.3c0.8-0.4,8.1-3.6,13.3,0.8
		c4.8,4.1,5.1,12.4,1.4,17.7c-3,4.4-8.4,6.3-13.3,5.3c-4.5-0.9-9.5-4.5-10.3-10.1C292.7,1558.4,298.3,1553.2,302.6,1551.3z"/>
	
		<linearGradient id="SVGID_00000102502201214987027520000013043270579749907104_" gradientUnits="userSpaceOnUse" x1="726.1387" y1="1665.2037" x2="726.1387" y2="1665.2037" gradientTransform="matrix(-5.450334e-03 1 -1 -5.450334e-03 1767.0593 950.1436)">
		<stop  offset="1.325964e-07" style="stop-color:#6DE3EE"/>
		<stop  offset="1" style="stop-color:#6AEBF0"/>
	</linearGradient>
	<path style="fill:url(#SVGID_00000102502201214987027520000013043270579749907104_);stroke:#000000;stroke-miterlimit:10;" d="
		M97.9,1667.2"/>
	
		<linearGradient id="SVGID_00000081617516426036146250000018256614513673352326_" gradientUnits="userSpaceOnUse" x1="248.7672" y1="1513.5431" x2="292.233" y2="1775.8362" gradientTransform="matrix(-1.300000e-02 1.4563 -1.1868 -1.060000e-02 2068.9409 775.0575)">
		<stop  offset="0" style="stop-color:#6DE3EE"/>
		<stop  offset="0.1668" style="stop-color:#6DE2EA"/>
		<stop  offset="0.345" style="stop-color:#6EDFDD"/>
		<stop  offset="0.5284" style="stop-color:#6FD9C8"/>
		<stop  offset="0.7155" style="stop-color:#71D2AA"/>
		<stop  offset="0.9036" style="stop-color:#73C984"/>
		<stop  offset="1" style="stop-color:#74C36D"/>
	</linearGradient>
	<path style="fill:url(#SVGID_00000081617516426036146250000018256614513673352326_);" d="M-2.3,1234.6c13.5-3.1,34.4-5.9,59.2-1.5
		c8.6,1.5,35.5,7.1,65.5,28.5c54.8,39.1,63.3,90.9,82.7,86.5c15.8-3.6,23-40.8,23.7-63.7c1.6-52-28.2-91.1-41.6-108.2
		c-32.5-41.5-49.4-32.8-96.8-86.6c-16.7-18.9-29.3-36.7-40.3-52.2c-21.6-30.3-37.9-57.5-49.6-78.3L-2.3,1234.6z"/>
	
		<linearGradient id="SVGID_00000168838973860677455880000001880933000549812649_" gradientUnits="userSpaceOnUse" x1="224.6429" y1="1831.459" x2="224.6429" y2="1831.459" gradientTransform="matrix(-5.450334e-03 1 -1 -5.450334e-03 1767.0593 950.1436)">
		<stop  offset="0.1435" style="stop-color:#6DE3EE"/>
		<stop  offset="0.2885" style="stop-color:#6EDFDE"/>
		<stop  offset="0.5697" style="stop-color:#70D5B6"/>
		<stop  offset="0.9561" style="stop-color:#74C575"/>
		<stop  offset="1" style="stop-color:#74C36D"/>
	</linearGradient>
	<path style="fill:url(#SVGID_00000168838973860677455880000001880933000549812649_);" d="M-65.6,1164.8"/>
	
		<linearGradient id="SVGID_00000065756237522471163360000009634533053383405205_" gradientUnits="userSpaceOnUse" x1="249.1852" y1="128.0274" x2="918.5189" y2="1113.7775" gradientTransform="matrix(1 1.695712e-03 1.695712e-03 -1 -0.9772 2435.3472)">
		<stop  offset="0" style="stop-color:#3CC6F3"/>
		<stop  offset="0.1592" style="stop-color:#42C6E4"/>
		<stop  offset="0.4636" style="stop-color:#52C5BE"/>
		<stop  offset="0.8785" style="stop-color:#6CC380"/>
		<stop  offset="1" style="stop-color:#74C36D"/>
	</linearGradient>
	<path style="fill:url(#SVGID_00000065756237522471163360000009634533053383405205_);" d="M1040.4,1273c-22,1.3-48.4,4.1-54.4,28.6
		c-1.5,10.1,2.8,18.8,8.6,26c5.8,5.8,14.6,5.8,21.9,5.9c23.4,0.1,44-11.3,61.7-27.1c20.6-17.2,28.1-41.7,40-64.8
		c1.5,0,2.9,1.5,2.9,1.5c1.4,7.9,0.6,15.5-1.6,22.7c-2.6,8.3-6,13.9-10.4,20.5c-14.3,21.5-21.4,32.2-24.9,36.4
		c-12,14.5-22.4,27-39.1,37.5c-25.5,16-35.2,8.2-64.5,25c-11.2,6.4-26.5,15.5-37.6,32.7c-13.1,20.3-13,40.8-12.3,50.7
		c0.7,6.9,3.6,40.7-22.4,66.5c-5.6,5.6-19.6,19.1-42.5,22.2c-22.4,3-48.1-4.7-62.5-22.6c-11.6-14.5-11.9-30.7-12-35.7
		c-0.2-13.1,3.4-14.5,5.8-28.8c0.6-3.4,5.4-33.9-15.4-54.6c-10.9-10.9-24.3-15-31.3-16.6c-7.7-1-26-2.2-44.9,7
		c-2.2,1.1-13.6,6.7-23.7,18.4c-8.8,10.1-12.3,19.8-14.8,26.6c-4.9,13.9-5.5,25.2-5.8,28.8c-2.3,33.1-21.7,67.9-25.1,73.9
		c-22.8,39.9-57.8,62.3-72.3,71.6c-15.5,9.9-30.9,17-33.8,18.3c-8.4,3.9-21.4,9.8-38.2,14.2c-26.2,6.8-47.7,6.3-59.5,5.9
		c-15.4-0.5-38.4-1.5-65-11.6c-11.2-4.3-32.4-12.1-52.6-30.1c-13.6-12.1-22.5-25.1-30.1-36.1c-6.3-9.2-11.7-18.3-16.7-26.8
		c-1.7-2.9-7.7-13.3-13.3-24.1c-8.1-15.5-12.1-26-21.1-48.1c-13.3-32.9-20.2-49.6-27.7-65.9c-6.9-15-11.5-25-18.9-38.1
		c-10.4-18.4-23.1-42.1-47.8-66.2c-12.2-11.9-30.9-27.7-57.2-42.2c-8.2-4.2-24.8-11.3-47-11.7c-16.4-0.3-29.5,3.2-37.6,6
		c-0.5,76.1-1,152.1-1.4,228.2c-0.5,108.7-1,217.4-1.2,326.2l-3,528.5l-0.5,82.8l777.3,3.9c107.5,0.5,215,1.1,322.5,1.6
		c8.6,0,17.1,0.1,25.7,0.1c0.9-145.9,1.7-291.9,2.6-437.8c0.8-133.8,1.6-267.5,2.4-401.2c0.2-34.7,0.4-69.4,0.6-104.1
		c0.6-93.7,1.1-187.4,1.7-281.1C1106.5,1245.9,1075.6,1268.8,1040.4,1273z M1037.8,1485.1c-9.4,0-9.4-13.4,0-13.4
		C1047.2,1471.7,1047.2,1485.1,1037.8,1485.1z"/>
	
		<linearGradient id="SVGID_00000160889678914739452400000006006191410183589031_" gradientUnits="userSpaceOnUse" x1="1622.6761" y1="1159.5563" x2="987.31" y2="623.7729" gradientTransform="matrix(-5.450334e-03 1 -1 -5.450334e-03 1767.0593 950.1436)">
		<stop  offset="0.1822" style="stop-color:#FFFFFF;stop-opacity:0.2"/>
		<stop  offset="1" style="stop-color:#FFFFFF;stop-opacity:0"/>
	</linearGradient>
	<path style="fill:url(#SVGID_00000160889678914739452400000006006191410183589031_);" d="M1120.8,1571.9
		c1.1,16.4,6.7,137.5-114.2,221.5c-69.4,48.2-141.6,25.8-206,65.9c-97.1,60.4-35.9,169.8-75.6,289.9
		c-26.3,79.5-100.9,185.1-321.3,287.5l711.9,3.6L1120.8,1571.9z"/>
	<path class="st7" d="M1003.4,2105"/>
	
		<linearGradient id="SVGID_00000121981286441944314090000000972808161339128489_" gradientUnits="userSpaceOnUse" x1="1798.0042" y1="1311.428" x2="1798.0042" y2="1311.428" gradientTransform="matrix(-5.450334e-03 1 -1 -5.450334e-03 1767.0593 950.1436)">
		<stop  offset="1.325964e-07" style="stop-color:#3CC6F3"/>
		<stop  offset="0.1592" style="stop-color:#42C6E4"/>
		<stop  offset="0.4636" style="stop-color:#52C5BE"/>
		<stop  offset="0.8785" style="stop-color:#6CC380"/>
		<stop  offset="1" style="stop-color:#74C36D"/>
	</linearGradient>
	<path style="fill:url(#SVGID_00000121981286441944314090000000972808161339128489_);" d="M445.8,2741"/>
	
		<linearGradient id="SVGID_00000128460929804198728550000002520165186569428650_" gradientUnits="userSpaceOnUse" x1="601.2634" y1="1373.2177" x2="1494.0074" y2="1373.2177" gradientTransform="matrix(-5.450334e-03 1 -1 -5.450334e-03 1767.0593 950.1436)">
		<stop  offset="6.680820e-07" style="stop-color:#FFFFFF;stop-opacity:0.2"/>
		<stop  offset="1" style="stop-color:#FFFFFF;stop-opacity:0"/>
	</linearGradient>
	<path style="fill:url(#SVGID_00000128460929804198728550000002520165186569428650_);" d="M646.3,1545.3
		c27.3,56.3,64.3,155.4,53.2,278c-2.4,26.2-25.2,244.3-187.9,358.6c-78.1,54.9-145.8,56-220.7,143.3c-35.1,41-55.5,81.9-67.2,110.5
		c-50.1-0.2-100.1-0.5-150.2-0.8c1.6-9.8,3.7-20.1,6.4-30.9c5-20,11-38,17.4-53.7c13.7-30.8,38.5-77.4,82.8-121
		c85.7-84.4,151.9-66.7,246.9-132.4c133.2-92.1,173.3-244.2,182.8-280.3c28.1-106.4,15.6-197.2,4.9-246.7c3.7-1.7,7.8-3.9,12.1-6.8
		C635.6,1557.4,642,1550.7,646.3,1545.3z"/>
	
		<linearGradient id="SVGID_00000157291637528309752990000003755132591311577003_" gradientUnits="userSpaceOnUse" x1="1595.2017" y1="1454.9963" x2="1595.2017" y2="1454.9963" gradientTransform="matrix(-5.450334e-03 1 -1 -5.450334e-03 1767.0593 950.1436)">
		<stop  offset="1.325964e-07" style="stop-color:#3CC6F3"/>
		<stop  offset="0.1592" style="stop-color:#42C6E4"/>
		<stop  offset="0.4636" style="stop-color:#52C5BE"/>
		<stop  offset="0.8785" style="stop-color:#6CC380"/>
		<stop  offset="1" style="stop-color:#74C36D"/>
	</linearGradient>
	<path style="fill:url(#SVGID_00000157291637528309752990000003755132591311577003_);" d="M303.4,2537.4"/>
	
		<linearGradient id="SVGID_00000018927963656946222430000010813015599857072295_" gradientUnits="userSpaceOnUse" x1="1347.6729" y1="1261.1293" x2="847.9427" y2="1795.4154" gradientTransform="matrix(-5.450334e-03 1 -1 -5.450334e-03 1767.0593 950.1436)">
		<stop  offset="1.910000e-02" style="stop-color:#FFFFFF;stop-opacity:0.3"/>
		<stop  offset="1" style="stop-color:#FFFFFF;stop-opacity:0"/>
	</linearGradient>
	<path style="fill:url(#SVGID_00000018927963656946222430000010813015599857072295_);" d="M395.9,1643.1c-8.8,4.6-2.4,18.4-6,34.5
		c-6.3,28.1-39.6,48.2-65.8,55.6c-31.8,9-59.7,1-74-3.4c-37.1-11.2-38.2-26.4-99.5-62.5c-24.4-14.4-42.8-21.4-65.3-30.5
		c-42.6-17.3-76.2-30.6-88.6-20.1c-3.9,3.3-8.7,11.4,0.1,34.8c-1.6,260.9-3.1,521.9-4.7,782.8c6.8-0.2,16.8-0.4,28.8,0
		c34.9,1.2,46,5.8,51.7,0.4c6.8-6.5-1-20.8-13.7-47.1c0,0-15.7-32.5-29.6-65.2c-21-49.4-7.1-98.1,1.6-128.3
		c3.8-13.3,17.1-55.7,54-99.5c33.2-39.5,48-35.3,91.8-84.2c28-31.2,47.5-61.5,57.3-76.8c24.2-37.9,23.1-44.6,45.2-75.3
		c25.3-35,37.9-52.5,61.7-66.2c23.7-13.7,36-11.6,76-34.3c18.2-10.3,27.8-17.6,36.3-27c13-14.5,18-28,22.6-40.7
		c5.8-15.8,12-32.7,3.7-39.3c-1.7-1.4-3.4-1.8-19-2.4c-23.5-0.9-25.3-0.2-34.2-1C406.1,1645.5,401.8,1640,395.9,1643.1z"/>
	
		<linearGradient id="SVGID_00000156578637975018461140000001434820332427728312_" gradientUnits="userSpaceOnUse" x1="1681.6074" y1="1564.3019" x2="1681.6074" y2="1564.3019" gradientTransform="matrix(-5.450334e-03 1 -1 -5.450334e-03 1767.0593 950.1436)">
		<stop  offset="1.325964e-07" style="stop-color:#3CC6F3"/>
		<stop  offset="0.1592" style="stop-color:#42C6E4"/>
		<stop  offset="0.4636" style="stop-color:#52C5BE"/>
		<stop  offset="0.8785" style="stop-color:#6CC380"/>
		<stop  offset="1" style="stop-color:#74C36D"/>
	</linearGradient>
	<path style="fill:url(#SVGID_00000156578637975018461140000001434820332427728312_);" d="M193.6,2623.2"/>
	<path class="st7" d="M404.7,2616.1"/>
	
		<linearGradient id="SVGID_00000143593069899998453700000000829766941518659492_" gradientUnits="userSpaceOnUse" x1="1610.2899" y1="1487.9385" x2="1610.2899" y2="1487.9385" gradientTransform="matrix(-5.450334e-03 1 -1 -5.450334e-03 1767.0593 950.1436)">
		<stop  offset="6.629821e-07" style="stop-color:#FFFFFF;stop-opacity:0.2"/>
		<stop  offset="1" style="stop-color:#FFFFFF;stop-opacity:0.2"/>
	</linearGradient>
	<path style="fill:url(#SVGID_00000143593069899998453700000000829766941518659492_);" d="M270.3,2552.3"/>
</g>
<g id="Layer_2_00000062913866112698179050000007455301128217149608_">
</g>
</svg>
